<?xml version="1.0" encoding="UTF-8"?>
<svg version="1.1" xmlns="http://www.w3.org/2000/svg" width="24" height="24">
<path d="M0 0 C7.92 0 15.84 0 24 0 C24 7.92 24 15.84 24 24 C16.08 24 8.16 24 0 24 C0 16.08 0 8.16 0 0 Z " fill="#7F1D29" transform="translate(0,0)"/>
<path d="M0 0 C7.8376046 2.55177824 7.8376046 2.55177824 9.95703125 5.8515625 C10.94868548 7.83487097 11.85742717 9.81934906 12.6875 11.875 C13.0175 11.875 13.3475 11.875 13.6875 11.875 C13.6875 15.175 13.6875 18.475 13.6875 21.875 C7.7475 21.875 1.8075 21.875 -4.3125 21.875 C-4.3125 20.885 -4.3125 19.895 -4.3125 18.875 C-0.6825 18.545 2.9475 18.215 6.6875 17.875 C7.6775 15.565 8.6675 13.255 9.6875 10.875 C9.11 11.205 8.5325 11.535 7.9375 11.875 C5.6875 12.875 5.6875 12.875 1.6875 12.875 C1.6875 12.215 1.6875 11.555 1.6875 10.875 C0.5428125 11.1534375 0.5428125 11.1534375 -0.625 11.4375 C-3.3125 11.875 -3.3125 11.875 -6.3125 10.875 C-5.9825 12.195 -5.6525 13.515 -5.3125 14.875 C-6.6325 14.215 -7.9525 13.555 -9.3125 12.875 C-8.9825 11.555 -8.6525 10.235 -8.3125 8.875 C-7.6525 8.875 -6.9925 8.875 -6.3125 8.875 C-6.209375 7.946875 -6.10625 7.01875 -6 6.0625 C-5.3125 2.875 -5.3125 2.875 -4.0625 0.9375 C-2.3125 -0.125 -2.3125 -0.125 0 0 Z " fill="#3E3733" transform="translate(10.3125,2.125)"/>
<path d="M0 0 C2.64 0 5.28 0 8 0 C8 0.66 8 1.32 8 2 C10.64 1.34 13.28 0.68 16 0 C15.25 5.75 15.25 5.75 13 8 C10.94140625 8.484375 10.94140625 8.484375 8.5625 8.75 C7.78003906 8.84796875 6.99757813 8.9459375 6.19140625 9.046875 C4 9 4 9 1 7 C0.3125 3.375 0.3125 3.375 0 0 Z " fill="#C4A183" transform="translate(4,13)"/>
<path d="M0 0 C0 3.3 0 6.6 0 10 C-5.94 10 -11.88 10 -18 10 C-18 9.01 -18 8.02 -18 7 C-17.24074219 6.98582031 -16.48148438 6.97164062 -15.69921875 6.95703125 C-12.72206802 6.81415891 -9.91926514 6.60980205 -7 6 C-4.91783124 3.6450037 -4.91783124 3.6450037 -4 1 C-1 0 -1 0 0 0 Z " fill="#59462F" transform="translate(24,14)"/>
<path d="M0 0 C2 1 2 1 2.6875 2.875 C3 5 3 5 2 8 C2.66 8 3.32 8 4 8 C4 8.99 4 9.98 4 11 C3.01 11.495 3.01 11.495 2 12 C2.34786708 13.97536745 2.34786708 13.97536745 3 16 C3.66 16.33 4.32 16.66 5 17 C5.40729228 19.32156597 5.74438677 21.6568787 6 24 C4.02 24 2.04 24 0 24 C0 16.08 0 8.16 0 0 Z " fill="#665136" transform="translate(0,0)"/>
<path d="M0 0 C1.32 0.33 2.64 0.66 4 1 C4 4.63 4 8.26 4 12 C3.01 12.495 3.01 12.495 2 13 C1.73445313 12.36191406 1.46890625 11.72382813 1.1953125 11.06640625 C0.84210937 10.24011719 0.48890625 9.41382813 0.125 8.5625 C-0.22304688 7.73878906 -0.57109375 6.91507813 -0.9296875 6.06640625 C-1.8244937 3.84253285 -1.8244937 3.84253285 -4 3 C-3.67 2.34 -3.34 1.68 -3 1 C-2.01 1.33 -1.02 1.66 0 2 C0 1.34 0 0.68 0 0 Z " fill="#917751" transform="translate(20,2)"/>
<path d="M0 0 C2.64 0 5.28 0 8 0 C8 1.32 8 2.64 8 4 C5.69 4.33 3.38 4.66 1 5 C0.67 3.35 0.34 1.7 0 0 Z " fill="#CEAE91" transform="translate(4,13)"/>
<path d="M0 0 C2 1 2 1 2.6875 2.875 C3 5 3 5 2 8 C2.66 8 3.32 8 4 8 C4 8.99 4 9.98 4 11 C3.01 11.495 3.01 11.495 2 12 C1.34 12.99 0.68 13.98 0 15 C0 10.05 0 5.1 0 0 Z " fill="#A0835B" transform="translate(0,0)"/>
<path d="M0 0 C-0.33 0.99 -0.66 1.98 -1 3 C-4.3 3 -7.6 3 -11 3 C-11 2.01 -11 1.02 -11 0 C-6.98195309 -0.84098656 -3.98196457 -1.05404945 0 0 Z " fill="#1D1814" transform="translate(17,21)"/>
<path d="M0 0 C0.66 0.33 1.32 0.66 2 1 C1.625 2.9375 1.625 2.9375 1 5 C0.01 5.495 0.01 5.495 -1 6 C-0.67 4.02 -0.34 2.04 0 0 Z M-3 6 C-2.34 6 -1.68 6 -1 6 C-0.67 7.98 -0.34 9.96 0 12 C-1.32 11.34 -2.64 10.68 -4 10 C-3.67 8.68 -3.34 7.36 -3 6 Z " fill="#292421" transform="translate(5,5)"/>
<path d="M0 0 C2.64 0 5.28 0 8 0 C7.67 0.99 7.34 1.98 7 3 C3.86650268 4.04449911 3.01031744 3.93423645 0 3 C0 2.01 0 1.02 0 0 Z " fill="#321F1C" transform="translate(16,0)"/>
<path d="M0 0 C-0.33 1.98 -0.66 3.96 -1 6 C-5.875 4.25 -5.875 4.25 -7 2 C-2.25 0 -2.25 0 0 0 Z " fill="#CBAC8F" transform="translate(20,13)"/>
<path d="M0 0 C0 1.98 0 3.96 0 6 C-0.99 6.495 -0.99 6.495 -2 7 C-2.66 5.02 -3.32 3.04 -4 1 C-2 0 -2 0 0 0 Z " fill="#7C6443" transform="translate(24,8)"/>
</svg>
